<svg 
  xmlns="http://www.w3.org/2000/svg" viewBox="0 0 1200 630" width="1200" height="630">
  <defs>
    <linearGradient id="bg" x1="0" y1="0" x2="1" y2="1">
      <stop offset="0%" stop-color="#fdf7ee"/>
      <stop offset="100%" stop-color="#f4ece0"/>
    </linearGradient>
  </defs>
  <!-- Background -->
  <rect width="1200" height="630" fill="url(#bg)"/>
  <!-- Decorative Confeti shapes -->
  <rect x="80" y="90" width="22" height="22" rx="6" fill="#ef5d57" transform="rotate(20,91,101)"/>
  <circle cx="200" cy="180" r="14" fill="#3d9be0"/>
  <rect x="320" y="60" width="16" height="36" rx="8" fill="#f5b13d" transform="rotate(-18,328,78)"/>
  <circle cx="140" cy="300" r="12" fill="#2bb38a"/>
  <rect x="1060" y="120" width="20" height="20" rx="5" fill="#7c5cd6" transform="rotate(34,1070,130)"/>
  <circle cx="1100" cy="220" r="16" fill="#ef5d57"/>
  <rect x="1020" y="400" width="14" height="14" rx="4" fill="#f5b13d" transform="rotate(15,1027,407)"/>
  <circle cx="950" cy="520" r="10" fill="#3d9be0"/>
  <rect x="60" y="480" width="18" height="18" rx="5" fill="#ef5d57" transform="rotate(-25,69,489)"/>
  <circle cx="180" cy="540" r="13" fill="#7c5cd6"/>
  <rect x="400" y="520" width="15" height="28" rx="7" fill="#2bb38a" transform="rotate(10,407,534)"/>
  <!-- Logo circle -->
  <circle cx="600" cy="200" r="64" fill="#ef5d57"/>
  <text x="600" y="225" font-size="70" font-family="Nunito,sans-serif" font-weight="800" fill="white" text-anchor="middle">C</text>
  <!-- Main title -->
  <text x="600" y="330" font-size="72" font-family="Nunito,sans-serif" font-weight="800" fill="#2b2435" text-anchor="middle" letter-spacing="-1">Confeti</text>
  <!-- Tagline -->
  <text x="600" y="400" font-size="30" font-family="Nunito,sans-serif" font-weight="600" fill="#6b6175" text-anchor="middle">Crée et offre un site d'anniversaire unique</text>
  <!-- Sub-tagline -->
  <text x="600" y="450" font-size="22" font-family="Nunito,sans-serif" font-weight="500" fill="#a0959f" text-anchor="middle">Sans coder · 100 % gratuit · Un seul fichier à partager</text>
  <!-- Domain badge -->
  <rect x="460" y="500" width="280" height="52" rx="26" fill="#2b2435"/>
  <text x="600" y="532" font-size="22" font-family="Nunito,sans-serif" font-weight="800" fill="white" text-anchor="middle">confeti.fun</text>
</svg>
